<?xml version="1.0" encoding="utf-8"?>
<!-- Generator: Adobe Illustrator 19.0.0, SVG Export Plug-In . SVG Version: 6.00 Build 0)  -->
<svg version="1.0" id="Layer_1" xmlns="http://www.w3.org/2000/svg" xmlns:xlink="http://www.w3.org/1999/xlink" x="0px" y="0px"
	 viewBox="0 0 32 32" enable-background="new 0 0 32 32" xml:space="preserve">
<path id="XMLID_60_" fill="#FFFFFF" d="M2,31.8c-1,0-1.8-0.8-1.8-1.8V6.7c0-0.6,0.3-1.2,0.8-1.5l7.1-4.7c0.3-0.2,0.7-0.3,1-0.3
	s0.7,0.1,1,0.3L16,4.4l5.9-3.9c0.3-0.2,0.7-0.3,1-0.3c0.4,0,0.7,0.1,1,0.3L31,5.2c0.5,0.3,0.8,0.9,0.8,1.5v23.3c0,0.5-0.2,1-0.6,1.3
	c-0.3,0.3-0.8,0.5-1.3,0.5l0,0c-0.4,0-0.7-0.1-1-0.3l-6-4L17,31.4c-0.3,0.2-0.7,0.3-1,0.3c-0.4,0-0.7-0.1-1-0.3l-5.9-3.9l-6,4
	C2.7,31.7,2.4,31.8,2,31.8z"/>
<linearGradient id="XMLID_18_" gradientUnits="userSpaceOnUse" x1="16.0088" y1="29.424" x2="16.0088" y2="4.1703">
	<stop  offset="0" style="stop-color:#093E60"/>
	<stop  offset="1" style="stop-color:#0774A2"/>
</linearGradient>
<path id="XMLID_1_" fill="url(#XMLID_18_)" d="M22.5,1.2L16,5.5L9.5,1.2C9.3,1,8.9,1,8.6,1.2L8.1,1.5L1.6,5.9C1.3,6,1.2,6.3,1.2,6.6
	v23.3c0,0.7,0.7,1.1,1.3,0.7l6.6-4.4l6.5,4.3c0.3,0.2,0.6,0.2,0.9,0l6.5-4.3l6.6,4.4c0.5,0.4,1.3,0,1.3-0.7V6.6
	c0-0.3-0.1-0.5-0.4-0.7l-7.1-4.7C23.1,1,22.8,1,22.5,1.2z M8.1,24.5l-5,3.3V7.1l5-3.3V24.5z M15.1,27.8l-5-3.3V3.8l5,3.3V27.8z
	 M22,24.5l-5,3.3V7.1l5-3.3V24.5z M28.9,27.8l-5-3.3V3.8l5,3.3V27.8z"/>
<linearGradient id="XMLID_19_" gradientUnits="userSpaceOnUse" x1="16.4338" y1="18.4294" x2="16.4338" y2="9.3828">
	<stop  offset="0" style="stop-color:#00C73F"/>
	<stop  offset="1" style="stop-color:#B3D721"/>
</linearGradient>
<path id="XMLID_2_" fill="url(#XMLID_19_)" d="M23.6,13.5c-0.1,0-0.2-0.1-0.3-0.2c-0.1-0.2-0.1-0.4,0.1-0.5l0.5-0.4
	c0.2-0.1,0.4-0.1,0.5,0.1c0.1,0.2,0.1,0.4-0.1,0.5l-0.5,0.4C23.7,13.5,23.7,13.5,23.6,13.5z M17.7,17.5l1-0.7
	c0.2-0.1,0.2-0.3,0.1-0.5c-0.1-0.2-0.3-0.2-0.5-0.1l-1,0.7c-0.2,0.1-0.2,0.3-0.1,0.5c0.1,0.1,0.2,0.2,0.3,0.2
	C17.6,17.6,17.7,17.5,17.7,17.5z M19.8,16.2l1-0.7c0.2-0.1,0.2-0.3,0.1-0.5c-0.1-0.2-0.3-0.2-0.5-0.1l-1,0.7
	c-0.2,0.1-0.2,0.3-0.1,0.5c0.1,0.1,0.2,0.2,0.3,0.2C19.6,16.2,19.7,16.2,19.8,16.2z M21.8,14.8l1-0.7c0.2-0.1,0.2-0.3,0.1-0.5
	c-0.1-0.2-0.3-0.2-0.5-0.1l-1,0.7c-0.2,0.1-0.2,0.3-0.1,0.5c0.1,0.1,0.2,0.2,0.3,0.2C21.6,14.9,21.7,14.9,21.8,14.8z M16.2,18.5
	l0.5-0.4c0.2-0.1,0.2-0.3,0.1-0.5c-0.1-0.2-0.3-0.2-0.5-0.1L16,17.8l-0.3-0.2c-0.2-0.1-0.4-0.1-0.5,0.1c-0.1,0.2-0.1,0.4,0.1,0.5
	l0.5,0.3c0.1,0,0.1,0.1,0.2,0.1C16.1,18.6,16.1,18.6,16.2,18.5z M14.6,17.3c0.1-0.2,0.1-0.4-0.1-0.5L13.3,16
	c-0.2-0.1-0.4-0.1-0.5,0.1c-0.1,0.2-0.1,0.4,0.1,0.5l1.2,0.8c0.1,0,0.1,0.1,0.2,0.1C14.4,17.5,14.5,17.4,14.6,17.3z M12.2,15.7
	c0.1-0.2,0.1-0.4-0.1-0.5L11,14.5c-0.2-0.1-0.4-0.1-0.5,0.1c-0.1,0.2-0.1,0.4,0.1,0.5l1.2,0.8c0.1,0,0.1,0.1,0.2,0.1
	C12.1,15.9,12.2,15.8,12.2,15.7z M8.7,14.3l0.3-0.2l0.3,0.2c0.2,0.1,0.4,0.1,0.5-0.1C10,14,10,13.8,9.8,13.7l-0.5-0.3
	c-0.1-0.1-0.3-0.1-0.4,0l-0.5,0.3c-0.2,0.1-0.2,0.3-0.1,0.5c0.1,0.1,0.2,0.2,0.3,0.2C8.6,14.3,8.7,14.3,8.7,14.3z M6.6,15.7L7.7,15
	c0.2-0.1,0.2-0.3,0.1-0.5c-0.1-0.2-0.3-0.2-0.5-0.1l-1.1,0.7C6,15.2,6,15.5,6.1,15.6c0.1,0.1,0.2,0.2,0.3,0.2
	C6.5,15.8,6.5,15.7,6.6,15.7z M5,16.8l0.5-0.3c0.2-0.1,0.2-0.3,0.1-0.5c-0.1-0.2-0.3-0.2-0.5-0.1l-0.5,0.3c-0.2,0.1-0.2,0.3-0.1,0.5
	c0.1,0.1,0.2,0.2,0.3,0.2C4.9,16.8,4.9,16.8,5,16.8z M27.9,9.6l-1.2,0.8l-0.8-1.2c0-0.1-0.1-0.1-0.2,0l-0.5,0.3
	c-0.1,0-0.1,0.1,0,0.2L26,11l-1.2,0.8c-0.1,0-0.1,0.1,0,0.2l0.3,0.5c0,0.1,0.1,0.1,0.2,0l1.2-0.8l0.8,1.2c0,0.1,0.1,0.1,0.2,0
	l0.5-0.3c0.1,0,0.1-0.1,0-0.2l-0.8-1.2l1.2-0.8c0.1,0,0.1-0.1,0-0.2l-0.3-0.5C28,9.6,27.9,9.6,27.9,9.6z"/>
<polygon id="XMLID_32_" opacity="0.2" points="8.1,25.5 8.1,24.5 3.1,27.8 3.1,28.9 "/>
<polygon id="XMLID_31_" opacity="0.2" points="22,25.5 22,24.5 17,27.8 17,28.9 "/>
<polygon id="XMLID_30_" opacity="0.2" points="15.1,28.9 15.1,27.8 10,24.5 10,25.5 "/>
<polygon id="XMLID_29_" opacity="0.2" points="28.9,28.9 28.9,27.8 23.9,24.5 23.9,25.5 "/>
<path id="XMLID_28_" opacity="0.2" d="M30.5,5.9l-7.1-4.7c-0.3-0.2-0.6-0.2-0.9,0L16,5.5L9.5,1.2C9.3,1,8.9,1,8.6,1.2L8.1,1.5
	L1.6,5.9C1.3,6,1.2,6.3,1.2,6.6v1c0-0.3,0.1-0.5,0.4-0.7l6.6-4.4l0.5-0.3C8.9,2,9.3,2,9.5,2.2L16,6.5l6.5-4.3c0.3-0.2,0.6-0.2,0.9,0
	l7.1,4.7c0.2,0.2,0.4,0.4,0.4,0.7v-1C30.8,6.3,30.7,6,30.5,5.9z"/>
</svg>
